<mxfile host="app.diagrams.net" agent="Mozilla/5.0 (Windows NT 10.0; Win64; x64) AppleWebKit/537.36 (KHTML, like Gecko) Chrome/138.0.0.0 Safari/537.36" version="28.0.4">
  <diagram name="Page-1" id="BpLOFuCSfXvprF_aa2A0">
    <mxGraphModel dx="1025" dy="477" grid="1" gridSize="10" guides="1" tooltips="1" connect="1" arrows="1" fold="1" page="1" pageScale="1" pageWidth="850" pageHeight="1100" math="0" shadow="0">
      <root>
        <mxCell id="0" />
        <mxCell id="1" parent="0" />
        <mxCell id="EcfIhRAE1STNXyQr-O1w-21" value="" style="rounded=1;whiteSpace=wrap;html=1;arcSize=10;" vertex="1" parent="1">
          <mxGeometry x="130" y="505" width="620" height="315" as="geometry" />
        </mxCell>
        <mxCell id="EcfIhRAE1STNXyQr-O1w-19" style="edgeStyle=none;curved=1;rounded=0;orthogonalLoop=1;jettySize=auto;html=1;entryX=0.5;entryY=0;entryDx=0;entryDy=0;fontSize=12;startSize=8;endSize=8;exitX=0.5;exitY=1;exitDx=0;exitDy=0;" edge="1" parent="1" source="EcfIhRAE1STNXyQr-O1w-22" target="EcfIhRAE1STNXyQr-O1w-9">
          <mxGeometry relative="1" as="geometry">
            <mxPoint x="440" y="600" as="sourcePoint" />
          </mxGeometry>
        </mxCell>
        <mxCell id="EcfIhRAE1STNXyQr-O1w-20" value="Log Message" style="edgeLabel;html=1;align=center;verticalAlign=middle;resizable=0;points=[];fontSize=12;" vertex="1" connectable="0" parent="EcfIhRAE1STNXyQr-O1w-19">
          <mxGeometry x="-0.0639" y="-2" relative="1" as="geometry">
            <mxPoint as="offset" />
          </mxGeometry>
        </mxCell>
        <mxCell id="EcfIhRAE1STNXyQr-O1w-5" style="edgeStyle=orthogonalEdgeStyle;rounded=0;orthogonalLoop=1;jettySize=auto;html=1;exitX=0;exitY=0.75;exitDx=0;exitDy=0;entryX=0.5;entryY=1;entryDx=0;entryDy=0;" edge="1" parent="1" source="EcfIhRAE1STNXyQr-O1w-9" target="EcfIhRAE1STNXyQr-O1w-24">
          <mxGeometry relative="1" as="geometry">
            <mxPoint x="260" y="755" as="targetPoint" />
          </mxGeometry>
        </mxCell>
        <mxCell id="EcfIhRAE1STNXyQr-O1w-6" value="&lt;div&gt;Display New&amp;nbsp;&lt;/div&gt;&lt;div&gt;Messages&lt;/div&gt;" style="edgeLabel;html=1;align=center;verticalAlign=middle;resizable=0;points=[];" vertex="1" connectable="0" parent="EcfIhRAE1STNXyQr-O1w-5">
          <mxGeometry x="0.0119" y="1" relative="1" as="geometry">
            <mxPoint x="24" y="-6" as="offset" />
          </mxGeometry>
        </mxCell>
        <mxCell id="EcfIhRAE1STNXyQr-O1w-7" style="edgeStyle=orthogonalEdgeStyle;rounded=0;orthogonalLoop=1;jettySize=auto;html=1;exitX=1;exitY=0.25;exitDx=0;exitDy=0;entryX=0;entryY=0.5;entryDx=0;entryDy=0;" edge="1" parent="1" source="EcfIhRAE1STNXyQr-O1w-9" target="EcfIhRAE1STNXyQr-O1w-15">
          <mxGeometry relative="1" as="geometry" />
        </mxCell>
        <mxCell id="EcfIhRAE1STNXyQr-O1w-8" value="&lt;div&gt;Send LXMF&lt;/div&gt;&lt;div&gt;Message&lt;/div&gt;" style="edgeLabel;html=1;align=center;verticalAlign=middle;resizable=0;points=[];" connectable="0" vertex="1" parent="EcfIhRAE1STNXyQr-O1w-7">
          <mxGeometry x="-0.0469" y="-1" relative="1" as="geometry">
            <mxPoint x="-6" y="-1" as="offset" />
          </mxGeometry>
        </mxCell>
        <mxCell id="EcfIhRAE1STNXyQr-O1w-9" value="Jade OS Handler" style="whiteSpace=wrap;html=1;" vertex="1" parent="1">
          <mxGeometry x="380" y="720" width="120" height="60" as="geometry" />
        </mxCell>
        <mxCell id="EcfIhRAE1STNXyQr-O1w-10" style="edgeStyle=orthogonalEdgeStyle;rounded=0;orthogonalLoop=1;jettySize=auto;html=1;exitX=1;exitY=0.5;exitDx=0;exitDy=0;entryX=0;entryY=0.5;entryDx=0;entryDy=0;" edge="1" parent="1" source="EcfIhRAE1STNXyQr-O1w-24">
          <mxGeometry relative="1" as="geometry">
            <mxPoint x="260" y="740" as="sourcePoint" />
            <mxPoint x="380" y="740" as="targetPoint" />
            <Array as="points">
              <mxPoint x="330" y="660" />
              <mxPoint x="330" y="740" />
            </Array>
          </mxGeometry>
        </mxCell>
        <mxCell id="EcfIhRAE1STNXyQr-O1w-32" value="Send Message" style="edgeLabel;html=1;align=center;verticalAlign=middle;resizable=0;points=[];fontSize=12;" vertex="1" connectable="0" parent="EcfIhRAE1STNXyQr-O1w-10">
          <mxGeometry x="-0.0353" y="-1" relative="1" as="geometry">
            <mxPoint as="offset" />
          </mxGeometry>
        </mxCell>
        <mxCell id="EcfIhRAE1STNXyQr-O1w-13" style="edgeStyle=orthogonalEdgeStyle;rounded=0;orthogonalLoop=1;jettySize=auto;html=1;exitX=0.5;exitY=1;exitDx=0;exitDy=0;entryX=1;entryY=0.75;entryDx=0;entryDy=0;" edge="1" parent="1" source="EcfIhRAE1STNXyQr-O1w-15" target="EcfIhRAE1STNXyQr-O1w-9">
          <mxGeometry relative="1" as="geometry">
            <Array as="points">
              <mxPoint x="650" y="765" />
            </Array>
          </mxGeometry>
        </mxCell>
        <mxCell id="EcfIhRAE1STNXyQr-O1w-14" value="&lt;div&gt;Receive LorA&lt;/div&gt;&lt;div&gt;Message&amp;nbsp;&lt;/div&gt;" style="edgeLabel;html=1;align=center;verticalAlign=middle;resizable=0;points=[];" connectable="0" vertex="1" parent="EcfIhRAE1STNXyQr-O1w-13">
          <mxGeometry x="0.0061" y="1" relative="1" as="geometry">
            <mxPoint x="-22" y="-6" as="offset" />
          </mxGeometry>
        </mxCell>
        <mxCell id="EcfIhRAE1STNXyQr-O1w-15" value="LorA Interface" style="whiteSpace=wrap;html=1;" vertex="1" parent="1">
          <mxGeometry x="590" y="630" width="120" height="60" as="geometry" />
        </mxCell>
        <mxCell id="EcfIhRAE1STNXyQr-O1w-18" value="Jade Device" style="text;html=1;align=center;verticalAlign=middle;whiteSpace=wrap;rounded=0;" vertex="1" parent="1">
          <mxGeometry x="380" y="475" width="120" height="30" as="geometry" />
        </mxCell>
        <mxCell id="EcfIhRAE1STNXyQr-O1w-22" value="SQLite" style="rounded=1;whiteSpace=wrap;html=1;" vertex="1" parent="1">
          <mxGeometry x="380" y="540" width="120" height="60" as="geometry" />
        </mxCell>
        <mxCell id="EcfIhRAE1STNXyQr-O1w-23" style="edgeStyle=none;curved=1;rounded=0;orthogonalLoop=1;jettySize=auto;html=1;exitX=1;exitY=0;exitDx=0;exitDy=0;fontSize=12;startSize=8;endSize=8;" edge="1" parent="1">
          <mxGeometry relative="1" as="geometry">
            <mxPoint x="260" y="710" as="sourcePoint" />
            <mxPoint x="260" y="710" as="targetPoint" />
          </mxGeometry>
        </mxCell>
        <mxCell id="EcfIhRAE1STNXyQr-O1w-24" value="Jade HTTP Server" style="rounded=1;whiteSpace=wrap;html=1;" vertex="1" parent="1">
          <mxGeometry x="170" y="630" width="120" height="60" as="geometry" />
        </mxCell>
      </root>
    </mxGraphModel>
  </diagram>
</mxfile>
